<svg xmlns="http://www.w3.org/2000/svg" viewBox="0 0 900 900"><defs><style>.cls-1{fill:#5b5d70;}.cls-2{fill:#74838c;}</style></defs><g id="Layer_2" data-name="Layer 2"><g id="Layer_4" data-name="Layer 4"><rect class="cls-1" width="900" height="900"/><path class="cls-2" d="M0,781.35v12.31A106.46,106.46,0,0,1,106.34,900h12.31A118.78,118.78,0,0,0,0,781.35Z"/><path class="cls-2" d="M225,781.35A106.47,106.47,0,0,1,118.65,675,118.78,118.78,0,0,0,0,556.35v12.31A106.46,106.46,0,0,1,106.34,675,118.79,118.79,0,0,0,225,793.66,106.46,106.46,0,0,1,331.34,900h12.31A118.78,118.78,0,0,0,225,781.35Z"/><path class="cls-2" d="M450,781.35A106.47,106.47,0,0,1,343.65,675,118.78,118.78,0,0,0,225,556.35,106.47,106.47,0,0,1,118.65,450,118.78,118.78,0,0,0,0,331.35v12.31A106.46,106.46,0,0,1,106.34,450,118.79,118.79,0,0,0,225,568.66,106.46,106.46,0,0,1,331.34,675,118.79,118.79,0,0,0,450,793.66,106.46,106.46,0,0,1,556.34,900h12.31A118.78,118.78,0,0,0,450,781.35Z"/><path class="cls-2" d="M793.65,450A118.78,118.78,0,0,0,675,331.35,106.47,106.47,0,0,1,568.65,225,118.78,118.78,0,0,0,450,106.35,106.47,106.47,0,0,1,343.65,0H331.34A118.79,118.79,0,0,0,450,118.66,106.46,106.46,0,0,1,556.34,225,118.79,118.79,0,0,0,675,343.66,106.46,106.46,0,0,1,781.34,450,118.79,118.79,0,0,0,900,568.66V556.35A106.47,106.47,0,0,1,793.65,450Z"/><path class="cls-2" d="M675,781.35A106.47,106.47,0,0,1,568.65,675,118.78,118.78,0,0,0,450,556.35,106.47,106.47,0,0,1,343.65,450,118.78,118.78,0,0,0,225,331.35,106.47,106.47,0,0,1,118.65,225,118.78,118.78,0,0,0,0,106.35v12.31A106.46,106.46,0,0,1,106.34,225,118.79,118.79,0,0,0,225,343.66,106.46,106.46,0,0,1,331.34,450,118.79,118.79,0,0,0,450,568.66,106.46,106.46,0,0,1,556.34,675,118.79,118.79,0,0,0,675,793.66,106.46,106.46,0,0,1,781.34,900h12.31A118.78,118.78,0,0,0,675,781.35Z"/><path class="cls-2" d="M793.65,675A118.78,118.78,0,0,0,675,556.35,106.47,106.47,0,0,1,568.65,450,118.78,118.78,0,0,0,450,331.35,106.47,106.47,0,0,1,343.65,225,118.78,118.78,0,0,0,225,106.35,106.47,106.47,0,0,1,118.65,0H106.34A118.79,118.79,0,0,0,225,118.66,106.46,106.46,0,0,1,331.34,225,118.79,118.79,0,0,0,450,343.66,106.46,106.46,0,0,1,556.34,450,118.79,118.79,0,0,0,675,568.66,106.46,106.46,0,0,1,781.34,675,118.79,118.79,0,0,0,900,793.66V781.35A106.47,106.47,0,0,1,793.65,675Z"/><path class="cls-2" d="M793.65,0H781.34A118.79,118.79,0,0,0,900,118.66V106.35A106.47,106.47,0,0,1,793.65,0Z"/><path class="cls-2" d="M793.65,225A118.78,118.78,0,0,0,675,106.35,106.47,106.47,0,0,1,568.65,0H556.34A118.79,118.79,0,0,0,675,118.66,106.46,106.46,0,0,1,781.34,225,118.79,118.79,0,0,0,900,343.66V331.35A106.47,106.47,0,0,1,793.65,225Z"/></g></g></svg>
